<?xml version="1.0" encoding="UTF-8" standalone="no"?>
<!DOCTYPE svg PUBLIC "-//W3C//DTD SVG 1.1//EN"
 "http://www.w3.org/Graphics/SVG/1.1/DTD/svg11.dtd">
<!-- Generated by graphviz version 2.36.0 (20140111.2315)
 -->
<!-- Title: Dannyps\Steam\SteamUser\getXML Pages: 1 -->
<svg width="324pt" height="87pt"
 viewBox="0.00 0.00 324.00 87.00" xmlns="http://www.w3.org/2000/svg" xmlns:xlink="http://www.w3.org/1999/xlink">
<g id="graph0" class="graph" transform="scale(1 1) rotate(0) translate(4 83)">
<title>Dannyps\Steam\SteamUser\getXML</title>
<polygon fill="white" stroke="none" points="-4,4 -4,-83 320,-83 320,4 -4,4"/>
<!-- Node1 -->
<g id="node1" class="node"><title>Node1</title>
<polygon fill="#bfbfbf" stroke="black" points="0,-24 0,-54 140,-54 140,-24 0,-24"/>
<text text-anchor="start" x="8" y="-42" font-family="Helvetica,sans-Serif" font-size="10.00">Dannyps\Steam\SteamUser</text>
<text text-anchor="middle" x="70" y="-31" font-family="Helvetica,sans-Serif" font-size="10.00">\getXML</text>
</g>
<!-- Node2 -->
<g id="node2" class="node"><title>Node2</title>
<g id="a_node2"><a xlink:href="classDannyps_1_1Steam_1_1SteamUser.html#ae65e9eaa883d28a346748a735bae2549" target="_top" xlink:title="Dannyps\\Steam\\SteamUser\l\\__construct">
<polygon fill="white" stroke="black" points="176,-49 176,-79 316,-79 316,-49 176,-49"/>
<text text-anchor="start" x="184" y="-67" font-family="Helvetica,sans-Serif" font-size="10.00">Dannyps\Steam\SteamUser</text>
<text text-anchor="middle" x="246" y="-56" font-family="Helvetica,sans-Serif" font-size="10.00">\__construct</text>
</a>
</g>
</g>
<!-- Node1&#45;&gt;Node2 -->
<g id="edge1" class="edge"><title>Node1&#45;&gt;Node2</title>
<path fill="none" stroke="midnightblue" d="M150.035,-50.3556C158.625,-51.5898 167.319,-52.839 175.779,-54.0545"/>
<polygon fill="midnightblue" stroke="midnightblue" points="150.415,-46.8744 140.019,-48.9166 149.42,-53.8033 150.415,-46.8744"/>
</g>
<!-- Node3 -->
<g id="node3" class="node"><title>Node3</title>
<g id="a_node3"><a xlink:href="classDannyps_1_1Steam_1_1SteamUser.html#a4b57ea3408f94776b4127c95f1fb29da" target="_top" xlink:title="Forces an update of the XML information currently cached. ">
<polygon fill="white" stroke="black" points="176,-0 176,-30 316,-30 316,-0 176,-0"/>
<text text-anchor="start" x="184" y="-18" font-family="Helvetica,sans-Serif" font-size="10.00">Dannyps\Steam\SteamUser</text>
<text text-anchor="middle" x="246" y="-7" font-family="Helvetica,sans-Serif" font-size="10.00">\refresh</text>
</a>
</g>
</g>
<!-- Node1&#45;&gt;Node3 -->
<g id="edge2" class="edge"><title>Node1&#45;&gt;Node3</title>
<path fill="none" stroke="midnightblue" d="M150.035,-28.0986C158.625,-26.9138 167.319,-25.7146 175.779,-24.5477"/>
<polygon fill="midnightblue" stroke="midnightblue" points="149.447,-24.6465 140.019,-29.4801 150.404,-31.5808 149.447,-24.6465"/>
</g>
</g>
</svg>
