<?xml version="1.0" encoding="UTF-8" standalone="no"?>
<!DOCTYPE svg PUBLIC "-//W3C//DTD SVG 1.1//EN"
 "http://www.w3.org/Graphics/SVG/1.1/DTD/svg11.dtd">
<!-- Generated by graphviz version 2.38.0 (20140413.2041)
 -->
<!-- Title: Dannyps\Steam\SteamGame\__constructFromXML Pages: 1 -->
<svg width="360pt" height="39pt"
 viewBox="0.00 0.00 360.00 39.00" xmlns="http://www.w3.org/2000/svg" xmlns:xlink="http://www.w3.org/1999/xlink">
<g id="graph0" class="graph" transform="scale(1 1) rotate(0) translate(4 35)">
<title>Dannyps\Steam\SteamGame\__constructFromXML</title>
<polygon fill="white" stroke="none" points="-4,4 -4,-35 356,-35 356,4 -4,4"/>
<!-- Node14 -->
<g id="node1" class="node"><title>Node14</title>
<polygon fill="#bfbfbf" stroke="black" points="0,-0.5 0,-30.5 158,-30.5 158,-0.5 0,-0.5"/>
<text text-anchor="start" x="8" y="-18.5" font-family="Helvetica,sans-Serif" font-size="10.00">Dannyps\Steam\SteamGame</text>
<text text-anchor="middle" x="79" y="-7.5" font-family="Helvetica,sans-Serif" font-size="10.00">\__constructFromXML</text>
</g>
<!-- Node15 -->
<g id="node2" class="node"><title>Node15</title>
<g id="a_node2"><a xlink:href="classDannyps_1_1Steam_1_1SteamGame.html#af61d1ab469aa10c9c67636be898a961b" target="_top" xlink:title="Dannyps\\Steam\\SteamGame\l\\__construct">
<polygon fill="white" stroke="black" points="194,-0.5 194,-30.5 352,-30.5 352,-0.5 194,-0.5"/>
<text text-anchor="start" x="202" y="-18.5" font-family="Helvetica,sans-Serif" font-size="10.00">Dannyps\Steam\SteamGame</text>
<text text-anchor="middle" x="273" y="-7.5" font-family="Helvetica,sans-Serif" font-size="10.00">\__construct</text>
</a>
</g>
</g>
<!-- Node14&#45;&gt;Node15 -->
<g id="edge1" class="edge"><title>Node14&#45;&gt;Node15</title>
<path fill="none" stroke="midnightblue" d="M168.153,-15.5C176.769,-15.5 185.47,-15.5 193.975,-15.5"/>
<polygon fill="midnightblue" stroke="midnightblue" points="168.094,-12.0001 158.094,-15.5 168.094,-19.0001 168.094,-12.0001"/>
</g>
</g>
</svg>
