<?xml version="1.0" encoding="UTF-8" standalone="no"?>
<!DOCTYPE svg PUBLIC "-//W3C//DTD SVG 1.1//EN"
 "http://www.w3.org/Graphics/SVG/1.1/DTD/svg11.dtd">
<!-- Generated by graphviz version 2.36.0 (20140111.2315)
 -->
<!-- Title: Dannyps\Steam\SteamID\isUserBySteamID64 Pages: 1 -->
<svg width="304pt" height="87pt"
 viewBox="0.00 0.00 304.00 87.00" xmlns="http://www.w3.org/2000/svg" xmlns:xlink="http://www.w3.org/1999/xlink">
<g id="graph0" class="graph" transform="scale(1 1) rotate(0) translate(4 83)">
<title>Dannyps\Steam\SteamID\isUserBySteamID64</title>
<polygon fill="white" stroke="none" points="-4,4 -4,-83 300,-83 300,4 -4,4"/>
<!-- Node1 -->
<g id="node1" class="node"><title>Node1</title>
<polygon fill="#bfbfbf" stroke="black" points="0.5,-24 0.5,-54 129.5,-54 129.5,-24 0.5,-24"/>
<text text-anchor="start" x="8.5" y="-42" font-family="Helvetica,sans-Serif" font-size="10.00">Dannyps\Steam\SteamID</text>
<text text-anchor="middle" x="65" y="-31" font-family="Helvetica,sans-Serif" font-size="10.00">\isUserBySteamID64</text>
</g>
<!-- Node2 -->
<g id="node2" class="node"><title>Node2</title>
<g id="a_node2"><a xlink:href="classDannyps_1_1Steam_1_1SteamID.html#a79946135da234aed79d66e968788752d" target="_top" xlink:title="Dannyps\\Steam\\SteamID\l\\__construct">
<polygon fill="white" stroke="black" points="166.5,-49 166.5,-79 295.5,-79 295.5,-49 166.5,-49"/>
<text text-anchor="start" x="174.5" y="-67" font-family="Helvetica,sans-Serif" font-size="10.00">Dannyps\Steam\SteamID</text>
<text text-anchor="middle" x="231" y="-56" font-family="Helvetica,sans-Serif" font-size="10.00">\__construct</text>
</a>
</g>
</g>
<!-- Node1&#45;&gt;Node2 -->
<g id="edge1" class="edge"><title>Node1&#45;&gt;Node2</title>
<path fill="none" stroke="midnightblue" d="M139.788,-50.2482C148.635,-51.5968 157.611,-52.9651 166.298,-54.2893"/>
<polygon fill="midnightblue" stroke="midnightblue" points="140.29,-46.7843 129.876,-48.7372 139.235,-53.7043 140.29,-46.7843"/>
</g>
<!-- Node3 -->
<g id="node3" class="node"><title>Node3</title>
<g id="a_node3"><a xlink:href="classDannyps_1_1Steam_1_1SteamID.html#a00c15a4b6fd0e0d5794ed39aa98d2dc6" target="_top" xlink:title="Dannyps\\Steam\\SteamID\l\\getSteamID3">
<polygon fill="white" stroke="black" points="166.5,-0 166.5,-30 295.5,-30 295.5,-0 166.5,-0"/>
<text text-anchor="start" x="174.5" y="-18" font-family="Helvetica,sans-Serif" font-size="10.00">Dannyps\Steam\SteamID</text>
<text text-anchor="middle" x="231" y="-7" font-family="Helvetica,sans-Serif" font-size="10.00">\getSteamID3</text>
</a>
</g>
</g>
<!-- Node1&#45;&gt;Node3 -->
<g id="edge2" class="edge"><title>Node1&#45;&gt;Node3</title>
<path fill="none" stroke="midnightblue" d="M139.788,-28.2018C148.635,-26.9071 157.611,-25.5935 166.298,-24.3222"/>
<polygon fill="midnightblue" stroke="midnightblue" points="139.264,-24.7411 129.876,-29.6523 140.278,-31.6673 139.264,-24.7411"/>
</g>
</g>
</svg>
