<?xml version="1.0" encoding="UTF-8" standalone="no"?>
<!DOCTYPE svg PUBLIC "-//W3C//DTD SVG 1.1//EN"
 "http://www.w3.org/Graphics/SVG/1.1/DTD/svg11.dtd">
<!-- Generated by graphviz version 2.38.0 (20140413.2041)
 -->
<!-- Title: Dannyps\Steam\SteamID\getSteamID3 Pages: 1 -->
<svg width="322pt" height="39pt"
 viewBox="0.00 0.00 322.00 39.00" xmlns="http://www.w3.org/2000/svg" xmlns:xlink="http://www.w3.org/1999/xlink">
<g id="graph0" class="graph" transform="scale(1 1) rotate(0) translate(4 35)">
<title>Dannyps\Steam\SteamID\getSteamID3</title>
<polygon fill="white" stroke="none" points="-4,4 -4,-35 318,-35 318,4 -4,4"/>
<!-- Node5 -->
<g id="node1" class="node"><title>Node5</title>
<polygon fill="#bfbfbf" stroke="black" points="0,-0.5 0,-30.5 139,-30.5 139,-0.5 0,-0.5"/>
<text text-anchor="start" x="8" y="-18.5" font-family="Helvetica,sans-Serif" font-size="10.00">Dannyps\Steam\SteamID</text>
<text text-anchor="middle" x="69.5" y="-7.5" font-family="Helvetica,sans-Serif" font-size="10.00">\getSteamID3</text>
</g>
<!-- Node6 -->
<g id="node2" class="node"><title>Node6</title>
<g id="a_node2"><a xlink:href="classDannyps_1_1Steam_1_1SteamID.html#abd60f1c3bd5657865ba55e3bebc22c24" target="_top" xlink:title="determines whether the passed steamID64 belongs to a user or a group. ">
<polygon fill="white" stroke="black" points="175,-0.5 175,-30.5 314,-30.5 314,-0.5 175,-0.5"/>
<text text-anchor="start" x="183" y="-18.5" font-family="Helvetica,sans-Serif" font-size="10.00">Dannyps\Steam\SteamID</text>
<text text-anchor="middle" x="244.5" y="-7.5" font-family="Helvetica,sans-Serif" font-size="10.00">\isUserBySteamID64</text>
</a>
</g>
</g>
<!-- Node5&#45;&gt;Node6 -->
<g id="edge1" class="edge"><title>Node5&#45;&gt;Node6</title>
<path fill="none" stroke="midnightblue" d="M139.371,-15.5C147.678,-15.5 156.211,-15.5 164.647,-15.5"/>
<polygon fill="midnightblue" stroke="midnightblue" points="164.866,-19.0001 174.866,-15.5 164.866,-12.0001 164.866,-19.0001"/>
</g>
</g>
</svg>
