<?xml version="1.0" encoding="UTF-8" standalone="no"?>
<!DOCTYPE svg PUBLIC "-//W3C//DTD SVG 1.1//EN"
 "http://www.w3.org/Graphics/SVG/1.1/DTD/svg11.dtd">
<!-- Generated by graphviz version 2.38.0 (20140413.2041)
 -->
<!-- Title: Dannyps\Steam\SteamGame\__construct Pages: 1 -->
<svg width="554pt" height="137pt"
 viewBox="0.00 0.00 554.00 137.00" xmlns="http://www.w3.org/2000/svg" xmlns:xlink="http://www.w3.org/1999/xlink">
<g id="graph0" class="graph" transform="scale(1 1) rotate(0) translate(4 133)">
<title>Dannyps\Steam\SteamGame\__construct</title>
<polygon fill="white" stroke="none" points="-4,4 -4,-133 550,-133 550,4 -4,4"/>
<!-- Node0 -->
<g id="node1" class="node"><title>Node0</title>
<polygon fill="#bfbfbf" stroke="black" points="0,-49.5 0,-79.5 158,-79.5 158,-49.5 0,-49.5"/>
<text text-anchor="start" x="8" y="-67.5" font-family="Helvetica,sans-Serif" font-size="10.00">Dannyps\Steam\SteamGame</text>
<text text-anchor="middle" x="79" y="-56.5" font-family="Helvetica,sans-Serif" font-size="10.00">\__construct</text>
</g>
<!-- Node1 -->
<g id="node2" class="node"><title>Node1</title>
<g id="a_node2"><a xlink:href="classDannyps_1_1Steam_1_1SteamGame.html#a91e8fab5ccd159a01df06a0dc5dea206" target="_top" xlink:title="Dannyps\\Steam\\SteamGame\l\\__constructFromAppID">
<polygon fill="white" stroke="black" points="194,-98.5 194,-128.5 352,-128.5 352,-98.5 194,-98.5"/>
<text text-anchor="start" x="202" y="-116.5" font-family="Helvetica,sans-Serif" font-size="10.00">Dannyps\Steam\SteamGame</text>
<text text-anchor="middle" x="273" y="-105.5" font-family="Helvetica,sans-Serif" font-size="10.00">\__constructFromAppID</text>
</a>
</g>
</g>
<!-- Node0&#45;&gt;Node1 -->
<g id="edge1" class="edge"><title>Node0&#45;&gt;Node1</title>
<path fill="none" stroke="midnightblue" d="M138.911,-79.5346C159.276,-84.7318 182.272,-90.6006 203.349,-95.9796"/>
<polygon fill="midnightblue" stroke="midnightblue" points="202.645,-99.4122 213.2,-98.4938 204.376,-92.6296 202.645,-99.4122"/>
</g>
<!-- Node3 -->
<g id="node4" class="node"><title>Node3</title>
<g id="a_node4"><a xlink:href="classDannyps_1_1Steam_1_1SteamGame.html#a80c76cddfa1a50b0793a5d1052513e07" target="_top" xlink:title="Dannyps\\Steam\\SteamGame\l\\__constructFromXML">
<polygon fill="white" stroke="black" points="194,-49.5 194,-79.5 352,-79.5 352,-49.5 194,-49.5"/>
<text text-anchor="start" x="202" y="-67.5" font-family="Helvetica,sans-Serif" font-size="10.00">Dannyps\Steam\SteamGame</text>
<text text-anchor="middle" x="273" y="-56.5" font-family="Helvetica,sans-Serif" font-size="10.00">\__constructFromXML</text>
</a>
</g>
</g>
<!-- Node0&#45;&gt;Node3 -->
<g id="edge3" class="edge"><title>Node0&#45;&gt;Node3</title>
<path fill="none" stroke="midnightblue" d="M158.094,-64.5C166.601,-64.5 175.302,-64.5 183.918,-64.5"/>
<polygon fill="midnightblue" stroke="midnightblue" points="183.975,-68.0001 193.975,-64.5 183.975,-61.0001 183.975,-68.0001"/>
</g>
<!-- Node4 -->
<g id="node5" class="node"><title>Node4</title>
<g id="a_node5"><a xlink:href="classDannyps_1_1Steam_1_1SteamGame.html#a4bc403f819b8f173f8b388166fff6b7e" target="_top" xlink:title="Dannyps\\Steam\\SteamGame\l\\__constructFromAppName">
<polygon fill="white" stroke="black" points="194,-0.5 194,-30.5 352,-30.5 352,-0.5 194,-0.5"/>
<text text-anchor="start" x="202" y="-18.5" font-family="Helvetica,sans-Serif" font-size="10.00">Dannyps\Steam\SteamGame</text>
<text text-anchor="middle" x="273" y="-7.5" font-family="Helvetica,sans-Serif" font-size="10.00">\__constructFromAppName</text>
</a>
</g>
</g>
<!-- Node0&#45;&gt;Node4 -->
<g id="edge4" class="edge"><title>Node0&#45;&gt;Node4</title>
<path fill="none" stroke="midnightblue" d="M138.911,-49.4654C159.276,-44.2682 182.272,-38.3994 203.349,-33.0204"/>
<polygon fill="midnightblue" stroke="midnightblue" points="204.376,-36.3704 213.2,-30.5062 202.645,-29.5878 204.376,-36.3704"/>
</g>
<!-- Node2 -->
<g id="node3" class="node"><title>Node2</title>
<g id="a_node3"><a xlink:href="classDannyps_1_1Steam_1_1SteamGame.html#a5905755884ee8ff8b1a217909d11fadf" target="_top" xlink:title="get the JSON content from the steam API, if we don&#39;t have it already. ">
<polygon fill="white" stroke="black" points="388,-98.5 388,-128.5 546,-128.5 546,-98.5 388,-98.5"/>
<text text-anchor="start" x="396" y="-116.5" font-family="Helvetica,sans-Serif" font-size="10.00">Dannyps\Steam\SteamGame</text>
<text text-anchor="middle" x="467" y="-105.5" font-family="Helvetica,sans-Serif" font-size="10.00">\getJSON</text>
</a>
</g>
</g>
<!-- Node1&#45;&gt;Node2 -->
<g id="edge2" class="edge"><title>Node1&#45;&gt;Node2</title>
<path fill="none" stroke="midnightblue" d="M352.094,-113.5C360.601,-113.5 369.302,-113.5 377.918,-113.5"/>
<polygon fill="midnightblue" stroke="midnightblue" points="377.975,-117 387.975,-113.5 377.975,-110 377.975,-117"/>
</g>
</g>
</svg>
