<?xml version="1.0" encoding="UTF-8" standalone="no"?>
<!DOCTYPE svg PUBLIC "-//W3C//DTD SVG 1.1//EN"
 "http://www.w3.org/Graphics/SVG/1.1/DTD/svg11.dtd">
<!-- Generated by graphviz version 2.36.0 (20140111.2315)
 -->
<!-- Title: Dannyps\Steam\SteamGame\__constructFromAppName Pages: 1 -->
<svg width="336pt" height="38pt"
 viewBox="0.00 0.00 336.00 38.00" xmlns="http://www.w3.org/2000/svg" xmlns:xlink="http://www.w3.org/1999/xlink">
<g id="graph0" class="graph" transform="scale(1 1) rotate(0) translate(4 34)">
<title>Dannyps\Steam\SteamGame\__constructFromAppName</title>
<polygon fill="white" stroke="none" points="-4,4 -4,-34 332,-34 332,4 -4,4"/>
<!-- Node1 -->
<g id="node1" class="node"><title>Node1</title>
<polygon fill="#bfbfbf" stroke="black" points="0.5,-0 0.5,-30 145.5,-30 145.5,-0 0.5,-0"/>
<text text-anchor="start" x="8.5" y="-18" font-family="Helvetica,sans-Serif" font-size="10.00">Dannyps\Steam\SteamGame</text>
<text text-anchor="middle" x="73" y="-7" font-family="Helvetica,sans-Serif" font-size="10.00">\__constructFromAppName</text>
</g>
<!-- Node2 -->
<g id="node2" class="node"><title>Node2</title>
<g id="a_node2"><a xlink:href="classDannyps_1_1Steam_1_1SteamGame.html#af61d1ab469aa10c9c67636be898a961b" target="_top" xlink:title="Dannyps\\Steam\\SteamGame\l\\__construct">
<polygon fill="white" stroke="black" points="182.5,-0 182.5,-30 327.5,-30 327.5,-0 182.5,-0"/>
<text text-anchor="start" x="190.5" y="-18" font-family="Helvetica,sans-Serif" font-size="10.00">Dannyps\Steam\SteamGame</text>
<text text-anchor="middle" x="255" y="-7" font-family="Helvetica,sans-Serif" font-size="10.00">\__construct</text>
</a>
</g>
</g>
<!-- Node1&#45;&gt;Node2 -->
<g id="edge1" class="edge"><title>Node1&#45;&gt;Node2</title>
<path fill="none" stroke="midnightblue" d="M155.921,-15C164.722,-15 173.626,-15 182.295,-15"/>
<polygon fill="midnightblue" stroke="midnightblue" points="155.658,-11.5001 145.658,-15 155.658,-18.5001 155.658,-11.5001"/>
</g>
</g>
</svg>
