<?xml version="1.0" encoding="UTF-8" standalone="no"?>
<!DOCTYPE svg PUBLIC "-//W3C//DTD SVG 1.1//EN"
 "http://www.w3.org/Graphics/SVG/1.1/DTD/svg11.dtd">
<!-- Generated by graphviz version 2.36.0 (20140111.2315)
 -->
<!-- Title: Dannyps\Steam\SteamGame\__construct Pages: 1 -->
<svg width="518pt" height="136pt"
 viewBox="0.00 0.00 518.00 136.00" xmlns="http://www.w3.org/2000/svg" xmlns:xlink="http://www.w3.org/1999/xlink">
<g id="graph0" class="graph" transform="scale(1 1) rotate(0) translate(4 132)">
<title>Dannyps\Steam\SteamGame\__construct</title>
<polygon fill="white" stroke="none" points="-4,4 -4,-132 514,-132 514,4 -4,4"/>
<!-- Node1 -->
<g id="node1" class="node"><title>Node1</title>
<polygon fill="#bfbfbf" stroke="black" points="0.5,-49 0.5,-79 145.5,-79 145.5,-49 0.5,-49"/>
<text text-anchor="start" x="8.5" y="-67" font-family="Helvetica,sans-Serif" font-size="10.00">Dannyps\Steam\SteamGame</text>
<text text-anchor="middle" x="73" y="-56" font-family="Helvetica,sans-Serif" font-size="10.00">\__construct</text>
</g>
<!-- Node2 -->
<g id="node2" class="node"><title>Node2</title>
<g id="a_node2"><a xlink:href="classDannyps_1_1Steam_1_1SteamGame.html#a91e8fab5ccd159a01df06a0dc5dea206" target="_top" xlink:title="Dannyps\\Steam\\SteamGame\l\\__constructFromAppID">
<polygon fill="white" stroke="black" points="182.5,-98 182.5,-128 327.5,-128 327.5,-98 182.5,-98"/>
<text text-anchor="start" x="190.5" y="-116" font-family="Helvetica,sans-Serif" font-size="10.00">Dannyps\Steam\SteamGame</text>
<text text-anchor="middle" x="255" y="-105" font-family="Helvetica,sans-Serif" font-size="10.00">\__constructFromAppID</text>
</a>
</g>
</g>
<!-- Node1&#45;&gt;Node2 -->
<g id="edge1" class="edge"><title>Node1&#45;&gt;Node2</title>
<path fill="none" stroke="midnightblue" d="M129.475,-79.1014C148.297,-84.2253 169.494,-89.9956 188.991,-95.3032"/>
<polygon fill="midnightblue" stroke="midnightblue" points="188.14,-98.6988 198.708,-97.9484 189.979,-91.9446 188.14,-98.6988"/>
</g>
<!-- Node4 -->
<g id="node4" class="node"><title>Node4</title>
<g id="a_node4"><a xlink:href="classDannyps_1_1Steam_1_1SteamGame.html#a80c76cddfa1a50b0793a5d1052513e07" target="_top" xlink:title="Dannyps\\Steam\\SteamGame\l\\__constructFromXML">
<polygon fill="white" stroke="black" points="182.5,-49 182.5,-79 327.5,-79 327.5,-49 182.5,-49"/>
<text text-anchor="start" x="190.5" y="-67" font-family="Helvetica,sans-Serif" font-size="10.00">Dannyps\Steam\SteamGame</text>
<text text-anchor="middle" x="255" y="-56" font-family="Helvetica,sans-Serif" font-size="10.00">\__constructFromXML</text>
</a>
</g>
</g>
<!-- Node1&#45;&gt;Node4 -->
<g id="edge3" class="edge"><title>Node1&#45;&gt;Node4</title>
<path fill="none" stroke="midnightblue" d="M145.658,-64C154.325,-64 163.23,-64 172.031,-64"/>
<polygon fill="midnightblue" stroke="midnightblue" points="172.295,-67.5001 182.295,-64 172.294,-60.5001 172.295,-67.5001"/>
</g>
<!-- Node5 -->
<g id="node5" class="node"><title>Node5</title>
<g id="a_node5"><a xlink:href="classDannyps_1_1Steam_1_1SteamGame.html#a4bc403f819b8f173f8b388166fff6b7e" target="_top" xlink:title="Dannyps\\Steam\\SteamGame\l\\__constructFromAppName">
<polygon fill="white" stroke="black" points="182.5,-0 182.5,-30 327.5,-30 327.5,-0 182.5,-0"/>
<text text-anchor="start" x="190.5" y="-18" font-family="Helvetica,sans-Serif" font-size="10.00">Dannyps\Steam\SteamGame</text>
<text text-anchor="middle" x="255" y="-7" font-family="Helvetica,sans-Serif" font-size="10.00">\__constructFromAppName</text>
</a>
</g>
</g>
<!-- Node1&#45;&gt;Node5 -->
<g id="edge4" class="edge"><title>Node1&#45;&gt;Node5</title>
<path fill="none" stroke="midnightblue" d="M129.475,-48.8986C148.297,-43.7747 169.494,-38.0044 188.991,-32.6968"/>
<polygon fill="midnightblue" stroke="midnightblue" points="189.979,-36.0554 198.708,-30.0516 188.14,-29.3012 189.979,-36.0554"/>
</g>
<!-- Node3 -->
<g id="node3" class="node"><title>Node3</title>
<g id="a_node3"><a xlink:href="classDannyps_1_1Steam_1_1SteamGame.html#a5905755884ee8ff8b1a217909d11fadf" target="_top" xlink:title="get the JSON content from the steam API, if we don&#39;t have it already. ">
<polygon fill="white" stroke="black" points="364.5,-98 364.5,-128 509.5,-128 509.5,-98 364.5,-98"/>
<text text-anchor="start" x="372.5" y="-116" font-family="Helvetica,sans-Serif" font-size="10.00">Dannyps\Steam\SteamGame</text>
<text text-anchor="middle" x="437" y="-105" font-family="Helvetica,sans-Serif" font-size="10.00">\getJSON</text>
</a>
</g>
</g>
<!-- Node2&#45;&gt;Node3 -->
<g id="edge2" class="edge"><title>Node2&#45;&gt;Node3</title>
<path fill="none" stroke="midnightblue" d="M327.658,-113C336.325,-113 345.23,-113 354.031,-113"/>
<polygon fill="midnightblue" stroke="midnightblue" points="354.295,-116.5 364.295,-113 354.294,-109.5 354.295,-116.5"/>
</g>
</g>
</svg>
