<?xml version="1.0" encoding="UTF-8" standalone="no"?>
<!DOCTYPE svg PUBLIC "-//W3C//DTD SVG 1.1//EN"
 "http://www.w3.org/Graphics/SVG/1.1/DTD/svg11.dtd">
<!-- Generated by graphviz version 2.38.0 (20140413.2041)
 -->
<!-- Title: Dannyps\Steam\SteamUser\getXML Pages: 1 -->
<svg width="348pt" height="88pt"
 viewBox="0.00 0.00 348.00 88.00" xmlns="http://www.w3.org/2000/svg" xmlns:xlink="http://www.w3.org/1999/xlink">
<g id="graph0" class="graph" transform="scale(1 1) rotate(0) translate(4 84)">
<title>Dannyps\Steam\SteamUser\getXML</title>
<polygon fill="white" stroke="none" points="-4,4 -4,-84 344,-84 344,4 -4,4"/>
<!-- Node37 -->
<g id="node1" class="node"><title>Node37</title>
<polygon fill="#bfbfbf" stroke="black" points="0,-24.5 0,-54.5 152,-54.5 152,-24.5 0,-24.5"/>
<text text-anchor="start" x="8" y="-42.5" font-family="Helvetica,sans-Serif" font-size="10.00">Dannyps\Steam\SteamUser</text>
<text text-anchor="middle" x="76" y="-31.5" font-family="Helvetica,sans-Serif" font-size="10.00">\getXML</text>
</g>
<!-- Node38 -->
<g id="node2" class="node"><title>Node38</title>
<g id="a_node2"><a xlink:href="classDannyps_1_1Steam_1_1SteamUser.html#ae65e9eaa883d28a346748a735bae2549" target="_top" xlink:title="Dannyps\\Steam\\SteamUser\l\\__construct">
<polygon fill="white" stroke="black" points="188,-49.5 188,-79.5 340,-79.5 340,-49.5 188,-49.5"/>
<text text-anchor="start" x="196" y="-67.5" font-family="Helvetica,sans-Serif" font-size="10.00">Dannyps\Steam\SteamUser</text>
<text text-anchor="middle" x="264" y="-56.5" font-family="Helvetica,sans-Serif" font-size="10.00">\__construct</text>
</a>
</g>
</g>
<!-- Node37&#45;&gt;Node38 -->
<g id="edge1" class="edge"><title>Node37&#45;&gt;Node38</title>
<path fill="none" stroke="midnightblue" d="M162.147,-50.9445C170.742,-52.0997 179.426,-53.267 187.905,-54.4066"/>
<polygon fill="midnightblue" stroke="midnightblue" points="162.494,-47.4598 152.117,-49.5964 161.562,-54.3974 162.494,-47.4598"/>
</g>
<!-- Node39 -->
<g id="node3" class="node"><title>Node39</title>
<g id="a_node3"><a xlink:href="classDannyps_1_1Steam_1_1SteamUser.html#a4b57ea3408f94776b4127c95f1fb29da" target="_top" xlink:title="Forces an update of the XML information currently cached. ">
<polygon fill="white" stroke="black" points="188,-0.5 188,-30.5 340,-30.5 340,-0.5 188,-0.5"/>
<text text-anchor="start" x="196" y="-18.5" font-family="Helvetica,sans-Serif" font-size="10.00">Dannyps\Steam\SteamUser</text>
<text text-anchor="middle" x="264" y="-7.5" font-family="Helvetica,sans-Serif" font-size="10.00">\refresh</text>
</a>
</g>
</g>
<!-- Node37&#45;&gt;Node39 -->
<g id="edge2" class="edge"><title>Node37&#45;&gt;Node39</title>
<path fill="none" stroke="midnightblue" d="M162.147,-28.5133C170.742,-27.4043 179.426,-26.2837 187.905,-25.1897"/>
<polygon fill="midnightblue" stroke="midnightblue" points="161.587,-25.0564 152.117,-29.8075 162.483,-31.9989 161.587,-25.0564"/>
</g>
</g>
</svg>
