<?xml version="1.0" encoding="UTF-8" standalone="no"?>
<!DOCTYPE svg PUBLIC "-//W3C//DTD SVG 1.1//EN"
 "http://www.w3.org/Graphics/SVG/1.1/DTD/svg11.dtd">
<!-- Generated by graphviz version 2.38.0 (20140413.2041)
 -->
<!-- Title: Dannyps\Steam\SteamGame\getJSON Pages: 1 -->
<svg width="554pt" height="39pt"
 viewBox="0.00 0.00 554.00 39.00" xmlns="http://www.w3.org/2000/svg" xmlns:xlink="http://www.w3.org/1999/xlink">
<g id="graph0" class="graph" transform="scale(1 1) rotate(0) translate(4 35)">
<title>Dannyps\Steam\SteamGame\getJSON</title>
<polygon fill="white" stroke="none" points="-4,4 -4,-35 550,-35 550,4 -4,4"/>
<!-- Node19 -->
<g id="node1" class="node"><title>Node19</title>
<polygon fill="#bfbfbf" stroke="black" points="0,-0.5 0,-30.5 158,-30.5 158,-0.5 0,-0.5"/>
<text text-anchor="start" x="8" y="-18.5" font-family="Helvetica,sans-Serif" font-size="10.00">Dannyps\Steam\SteamGame</text>
<text text-anchor="middle" x="79" y="-7.5" font-family="Helvetica,sans-Serif" font-size="10.00">\getJSON</text>
</g>
<!-- Node20 -->
<g id="node2" class="node"><title>Node20</title>
<g id="a_node2"><a xlink:href="classDannyps_1_1Steam_1_1SteamGame.html#a91e8fab5ccd159a01df06a0dc5dea206" target="_top" xlink:title="Dannyps\\Steam\\SteamGame\l\\__constructFromAppID">
<polygon fill="white" stroke="black" points="194,-0.5 194,-30.5 352,-30.5 352,-0.5 194,-0.5"/>
<text text-anchor="start" x="202" y="-18.5" font-family="Helvetica,sans-Serif" font-size="10.00">Dannyps\Steam\SteamGame</text>
<text text-anchor="middle" x="273" y="-7.5" font-family="Helvetica,sans-Serif" font-size="10.00">\__constructFromAppID</text>
</a>
</g>
</g>
<!-- Node19&#45;&gt;Node20 -->
<g id="edge1" class="edge"><title>Node19&#45;&gt;Node20</title>
<path fill="none" stroke="midnightblue" d="M168.153,-15.5C176.769,-15.5 185.47,-15.5 193.975,-15.5"/>
<polygon fill="midnightblue" stroke="midnightblue" points="168.094,-12.0001 158.094,-15.5 168.094,-19.0001 168.094,-12.0001"/>
</g>
<!-- Node21 -->
<g id="node3" class="node"><title>Node21</title>
<g id="a_node3"><a xlink:href="classDannyps_1_1Steam_1_1SteamGame.html#af61d1ab469aa10c9c67636be898a961b" target="_top" xlink:title="Dannyps\\Steam\\SteamGame\l\\__construct">
<polygon fill="white" stroke="black" points="388,-0.5 388,-30.5 546,-30.5 546,-0.5 388,-0.5"/>
<text text-anchor="start" x="396" y="-18.5" font-family="Helvetica,sans-Serif" font-size="10.00">Dannyps\Steam\SteamGame</text>
<text text-anchor="middle" x="467" y="-7.5" font-family="Helvetica,sans-Serif" font-size="10.00">\__construct</text>
</a>
</g>
</g>
<!-- Node20&#45;&gt;Node21 -->
<g id="edge2" class="edge"><title>Node20&#45;&gt;Node21</title>
<path fill="none" stroke="midnightblue" d="M362.153,-15.5C370.769,-15.5 379.47,-15.5 387.975,-15.5"/>
<polygon fill="midnightblue" stroke="midnightblue" points="362.094,-12.0001 352.094,-15.5 362.094,-19.0001 362.094,-12.0001"/>
</g>
</g>
</svg>
