<?xml version="1.0" encoding="UTF-8" standalone="no"?>
<!DOCTYPE svg PUBLIC "-//W3C//DTD SVG 1.1//EN"
 "http://www.w3.org/Graphics/SVG/1.1/DTD/svg11.dtd">
<!-- Generated by graphviz version 2.36.0 (20140111.2315)
 -->
<!-- Title: Dannyps\Steam\SteamGame\__constructFromAppID Pages: 1 -->
<svg width="336pt" height="38pt"
 viewBox="0.00 0.00 336.00 38.00" xmlns="http://www.w3.org/2000/svg" xmlns:xlink="http://www.w3.org/1999/xlink">
<g id="graph0" class="graph" transform="scale(1 1) rotate(0) translate(4 34)">
<title>Dannyps\Steam\SteamGame\__constructFromAppID</title>
<polygon fill="white" stroke="none" points="-4,4 -4,-34 332,-34 332,4 -4,4"/>
<!-- Node1 -->
<g id="node1" class="node"><title>Node1</title>
<polygon fill="#bfbfbf" stroke="black" points="0.5,-0 0.5,-30 145.5,-30 145.5,-0 0.5,-0"/>
<text text-anchor="start" x="8.5" y="-18" font-family="Helvetica,sans-Serif" font-size="10.00">Dannyps\Steam\SteamGame</text>
<text text-anchor="middle" x="73" y="-7" font-family="Helvetica,sans-Serif" font-size="10.00">\__constructFromAppID</text>
</g>
<!-- Node2 -->
<g id="node2" class="node"><title>Node2</title>
<g id="a_node2"><a xlink:href="classDannyps_1_1Steam_1_1SteamGame.html#a5905755884ee8ff8b1a217909d11fadf" target="_top" xlink:title="get the JSON content from the steam API, if we don&#39;t have it already. ">
<polygon fill="white" stroke="black" points="182.5,-0 182.5,-30 327.5,-30 327.5,-0 182.5,-0"/>
<text text-anchor="start" x="190.5" y="-18" font-family="Helvetica,sans-Serif" font-size="10.00">Dannyps\Steam\SteamGame</text>
<text text-anchor="middle" x="255" y="-7" font-family="Helvetica,sans-Serif" font-size="10.00">\getJSON</text>
</a>
</g>
</g>
<!-- Node1&#45;&gt;Node2 -->
<g id="edge1" class="edge"><title>Node1&#45;&gt;Node2</title>
<path fill="none" stroke="midnightblue" d="M145.658,-15C154.325,-15 163.23,-15 172.031,-15"/>
<polygon fill="midnightblue" stroke="midnightblue" points="172.295,-18.5001 182.295,-15 172.294,-11.5001 172.295,-18.5001"/>
</g>
</g>
</svg>
