<?xml version="1.0" encoding="UTF-8" standalone="no"?>
<!DOCTYPE svg PUBLIC "-//W3C//DTD SVG 1.1//EN"
 "http://www.w3.org/Graphics/SVG/1.1/DTD/svg11.dtd">
<!-- Generated by graphviz version 2.38.0 (20140413.2041)
 -->
<!-- Title: Dannyps\Steam\SteamUser\__construct Pages: 1 -->
<svg width="348pt" height="88pt"
 viewBox="0.00 0.00 348.00 88.00" xmlns="http://www.w3.org/2000/svg" xmlns:xlink="http://www.w3.org/1999/xlink">
<g id="graph0" class="graph" transform="scale(1 1) rotate(0) translate(4 84)">
<title>Dannyps\Steam\SteamUser\__construct</title>
<polygon fill="white" stroke="none" points="-4,4 -4,-84 344,-84 344,4 -4,4"/>
<!-- Node0 -->
<g id="node1" class="node"><title>Node0</title>
<polygon fill="#bfbfbf" stroke="black" points="0,-24.5 0,-54.5 152,-54.5 152,-24.5 0,-24.5"/>
<text text-anchor="start" x="8" y="-42.5" font-family="Helvetica,sans-Serif" font-size="10.00">Dannyps\Steam\SteamUser</text>
<text text-anchor="middle" x="76" y="-31.5" font-family="Helvetica,sans-Serif" font-size="10.00">\__construct</text>
</g>
<!-- Node1 -->
<g id="node2" class="node"><title>Node1</title>
<g id="a_node2"><a xlink:href="classDannyps_1_1Steam_1_1SteamUser.html#a5ac9e84e85ac83d52ce75f83f65fd9f4" target="_top" xlink:title="get the XML content from the steam Servers, if we don&#39;t have it already, but do it using the user&#39;s c...">
<polygon fill="white" stroke="black" points="188,-49.5 188,-79.5 340,-79.5 340,-49.5 188,-49.5"/>
<text text-anchor="start" x="196" y="-67.5" font-family="Helvetica,sans-Serif" font-size="10.00">Dannyps\Steam\SteamUser</text>
<text text-anchor="middle" x="264" y="-56.5" font-family="Helvetica,sans-Serif" font-size="10.00">\getXMLbyURLnick</text>
</a>
</g>
</g>
<!-- Node0&#45;&gt;Node1 -->
<g id="edge1" class="edge"><title>Node0&#45;&gt;Node1</title>
<path fill="none" stroke="midnightblue" d="M152.117,-49.5964C160.596,-50.736 169.281,-51.9033 177.875,-53.0585"/>
<polygon fill="midnightblue" stroke="midnightblue" points="177.528,-56.5432 187.905,-54.4066 178.46,-49.6056 177.528,-56.5432"/>
</g>
<!-- Node2 -->
<g id="node3" class="node"><title>Node2</title>
<g id="a_node3"><a xlink:href="classDannyps_1_1Steam_1_1SteamUser.html#ae44cbadcf08a354d1571c3d04f135fa3" target="_top" xlink:title="get the XML content from the steam Servers, if we don&#39;t have it already. ">
<polygon fill="white" stroke="black" points="188,-0.5 188,-30.5 340,-30.5 340,-0.5 188,-0.5"/>
<text text-anchor="start" x="196" y="-18.5" font-family="Helvetica,sans-Serif" font-size="10.00">Dannyps\Steam\SteamUser</text>
<text text-anchor="middle" x="264" y="-7.5" font-family="Helvetica,sans-Serif" font-size="10.00">\getXML</text>
</a>
</g>
</g>
<!-- Node0&#45;&gt;Node2 -->
<g id="edge2" class="edge"><title>Node0&#45;&gt;Node2</title>
<path fill="none" stroke="midnightblue" d="M152.117,-29.8075C160.596,-28.7134 169.281,-27.5928 177.875,-26.4839"/>
<polygon fill="midnightblue" stroke="midnightblue" points="178.435,-29.9407 187.905,-25.1897 177.539,-22.9983 178.435,-29.9407"/>
</g>
</g>
</svg>
